<?xml version="1.0" encoding="UTF-8"?>
<svg id="Layer_1" data-name="Layer 1" xmlns="http://www.w3.org/2000/svg" viewBox="0 0 141.73 141.73" width="50px" height="50px">
  <defs>
    <style>
      .cls-1 {
        fill: none;
        stroke: #605AAF;
        stroke-miterlimit: 10;
        stroke-width: 4pt;
      }
    </style>
  </defs>
  <path class="cls-1" d="M70.79,32.13c-14.48,15.72-28.96,31.44-43.44,47.15v44.19h87.04v-44.66c-14.53-15.56-29.06-31.12-43.59-46.68Z"/>
  <path class="cls-1" d="M124.54,88.27c-17.95-19.12-35.9-38.24-53.85-57.36-17.28,18.81-34.57,37.63-51.85,56.44-1.23,1.17-3.17,1.17-4.36.04-1.25-1.18-1.31-3.21-.09-4.49,18.83-20.49,37.66-40.98,56.49-61.47l58.87,62.14c1.21,1.41,1.23,3.42.19,4.67-1.24,1.48-3.78,1.64-5.38.04Z"/>
  <path class="cls-1" d="M83.86,121.94h-25.99v-32.71c1.72-6.25,7.53-10.44,13.76-10.09,5.71.32,10.68,4.39,12.23,10.09v32.71Z"/>
</svg>