<?xml version="1.0" encoding="UTF-8"?>
<svg id="Layer_2" data-name="Layer 2" xmlns="http://www.w3.org/2000/svg" viewBox="0 0 141.73 141.73">
  <defs>
    <style>
      .cls-1 {
        fill: none;
        stroke-width: 8px;
      }

      .cls-1, .cls-2 {
        stroke: #231f20;
        stroke-miterlimit: 10;
      }

      .cls-2 {
        fill: #231f20;
        stroke-width: 3px;
      }
    </style>
  </defs>
  <path class="cls-2" d="M5.09,65.67c-4.88-10.03-2.46-21.92,5.54-28.73,6.83-5.81,16.73-7.05,25.25-3.16,3.42,2.13,7.51,5.1,11.65,9.17,3.43,3.37,6.08,6.69,8.1,9.59l-13.13,13.13,36.83,36.83,14.56-14.56c1.92,1.56,4.69,3.85,7.95,6.71,5.43,4.76,8.17,7.19,9.6,9.37,1.01,1.55,4.89,7.66,3.71,15.82-.14.96-1.54,9.77-9.2,14.99-2.25,1.53-7.85,4.67-19.13,3.02-9.81-1.43-24.18-6.52-48.6-31.35-9.24-9.39-21.17-22.87-33.12-40.83Z"/>
  <path class="cls-1" d="M60.97,6.23c7.16.92,32.4,5.06,52.86,27.01,17.89,19.2,21.67,40.81,22.65,48.5"/>
  <path class="cls-1" d="M60.97,30.05c4.9.63,22.18,3.46,36.19,18.49,12.25,13.14,14.84,27.94,15.51,33.2"/>
  <path class="cls-1" d="M62.14,51.53c2.87.37,12.97,2.02,21.15,10.81,7.16,7.68,8.67,16.33,9.06,19.41"/>
</svg>